<svg width="416" height="416" viewBox="0 0 416 416" fill="none" xmlns="http://www.w3.org/2000/svg">
<circle cx="208" cy="208" r="208" fill="url(#paint0_radial_752_1310)"/>
<path d="M117.127 296.439V282.279C117.127 281.772 117.26 281.385 117.527 281.119C117.794 280.852 118.167 280.639 118.647 280.479C119.474 280.185 120.474 279.985 121.647 279.879C122.847 279.745 123.954 279.679 124.967 279.679C128.487 279.679 131.127 280.439 132.887 281.959C134.674 283.452 135.567 285.479 135.567 288.039C135.567 289.719 135.167 291.199 134.367 292.479C133.594 293.732 132.46 294.705 130.967 295.399C129.474 296.092 127.647 296.439 125.487 296.439H117.127ZM119.927 304.799C118.914 304.799 118.194 304.612 117.767 304.239C117.34 303.865 117.127 303.239 117.127 302.359V294.119H122.327V304.479C122.087 304.532 121.74 304.599 121.287 304.679C120.86 304.759 120.407 304.799 119.927 304.799ZM122.287 292.279H125.127C126.727 292.279 127.98 291.932 128.887 291.239C129.82 290.519 130.287 289.452 130.287 288.039C130.287 286.652 129.847 285.612 128.967 284.919C128.114 284.225 126.86 283.879 125.207 283.879C124.647 283.879 124.127 283.905 123.647 283.959C123.167 283.985 122.714 284.039 122.287 284.119V292.279ZM139.776 293.959L144.856 294.199V304.479C144.642 304.532 144.322 304.599 143.896 304.679C143.496 304.759 143.056 304.799 142.576 304.799C141.616 304.799 140.909 304.625 140.456 304.279C140.002 303.932 139.776 303.319 139.776 302.439V293.959ZM144.856 296.759L139.776 296.559V278.519C140.016 278.439 140.336 278.372 140.736 278.319C141.162 278.239 141.616 278.199 142.096 278.199C143.056 278.199 143.749 278.372 144.176 278.719C144.629 279.039 144.856 279.652 144.856 280.559V296.759ZM157.641 305.119C155.001 305.119 152.907 304.599 151.361 303.559C149.814 302.519 149.041 300.985 149.041 298.959C149.041 297.172 149.601 295.799 150.721 294.839C151.867 293.879 153.521 293.292 155.681 293.079L161.161 292.519V291.839C161.161 290.799 160.787 290.052 160.041 289.599C159.294 289.119 158.267 288.879 156.961 288.879C155.921 288.879 154.907 289.012 153.921 289.279C152.934 289.545 152.054 289.852 151.281 290.199C150.987 289.985 150.734 289.692 150.521 289.319C150.334 288.945 150.241 288.559 150.241 288.159C150.241 287.145 150.774 286.412 151.841 285.959C152.587 285.639 153.454 285.399 154.441 285.239C155.454 285.052 156.467 284.959 157.481 284.959C160.094 284.959 162.174 285.519 163.721 286.639C165.294 287.759 166.081 289.505 166.081 291.879V301.119C166.081 301.759 165.921 302.265 165.601 302.639C165.307 303.012 164.907 303.345 164.401 303.639C163.654 304.065 162.707 304.412 161.561 304.679C160.414 304.972 159.107 305.119 157.641 305.119ZM157.641 301.279C158.414 301.279 159.121 301.199 159.761 301.039C160.401 300.879 160.867 300.705 161.161 300.519V296.079L157.281 296.439C156.241 296.519 155.427 296.759 154.841 297.159C154.281 297.532 154.001 298.092 154.001 298.839C154.001 299.585 154.294 300.185 154.881 300.639C155.467 301.065 156.387 301.279 157.641 301.279ZM188.699 292.159V296.039H183.619V292.319C183.619 291.172 183.286 290.332 182.619 289.799C181.952 289.265 181.072 288.999 179.979 288.999C179.206 288.999 178.499 289.105 177.859 289.319C177.219 289.505 176.646 289.745 176.139 290.039V296.039H171.059V289.599C171.059 288.959 171.192 288.439 171.459 288.039C171.726 287.639 172.139 287.252 172.699 286.879C173.499 286.372 174.526 285.932 175.779 285.559C177.059 285.159 178.472 284.959 180.019 284.959C182.766 284.959 184.899 285.572 186.419 286.799C187.939 288.025 188.699 289.812 188.699 292.159ZM171.059 294.079H176.139V304.479C175.926 304.532 175.606 304.599 175.179 304.679C174.779 304.759 174.339 304.799 173.859 304.799C172.899 304.799 172.192 304.625 171.739 304.279C171.286 303.932 171.059 303.319 171.059 302.439V294.079ZM183.619 294.079H188.699V304.479C188.459 304.532 188.126 304.599 187.699 304.679C187.299 304.759 186.859 304.799 186.379 304.799C185.419 304.799 184.712 304.625 184.259 304.279C183.832 303.932 183.619 303.319 183.619 302.439V294.079ZM203.554 289.039C202.008 289.039 200.688 289.559 199.594 290.599C198.501 291.639 197.954 293.132 197.954 295.079C197.954 297.025 198.474 298.505 199.514 299.519C200.581 300.532 201.928 301.039 203.554 301.039C204.488 301.039 205.301 300.919 205.994 300.679C206.688 300.412 207.288 300.119 207.794 299.799C208.194 300.092 208.501 300.412 208.714 300.759C208.928 301.079 209.034 301.479 209.034 301.959C209.034 302.865 208.501 303.612 207.434 304.199C206.368 304.785 204.928 305.079 203.114 305.079C201.088 305.079 199.288 304.705 197.714 303.959C196.168 303.212 194.968 302.105 194.114 300.639C193.261 299.145 192.834 297.292 192.834 295.079C192.834 292.839 193.288 290.972 194.194 289.479C195.128 287.985 196.368 286.865 197.914 286.119C199.461 285.345 201.141 284.959 202.954 284.959C204.741 284.959 206.168 285.279 207.234 285.919C208.301 286.559 208.834 287.332 208.834 288.239C208.834 288.665 208.728 289.052 208.514 289.399C208.301 289.719 208.034 289.999 207.714 290.239C207.208 289.945 206.608 289.679 205.914 289.439C205.248 289.172 204.461 289.039 203.554 289.039ZM220.688 305.119C218.048 305.119 215.954 304.599 214.408 303.559C212.861 302.519 212.088 300.985 212.088 298.959C212.088 297.172 212.648 295.799 213.768 294.839C214.914 293.879 216.568 293.292 218.728 293.079L224.208 292.519V291.839C224.208 290.799 223.834 290.052 223.088 289.599C222.341 289.119 221.314 288.879 220.008 288.879C218.968 288.879 217.954 289.012 216.968 289.279C215.981 289.545 215.101 289.852 214.328 290.199C214.034 289.985 213.781 289.692 213.568 289.319C213.381 288.945 213.288 288.559 213.288 288.159C213.288 287.145 213.821 286.412 214.888 285.959C215.634 285.639 216.501 285.399 217.488 285.239C218.501 285.052 219.514 284.959 220.528 284.959C223.141 284.959 225.221 285.519 226.768 286.639C228.341 287.759 229.128 289.505 229.128 291.879V301.119C229.128 301.759 228.968 302.265 228.648 302.639C228.354 303.012 227.954 303.345 227.448 303.639C226.701 304.065 225.754 304.412 224.608 304.679C223.461 304.972 222.154 305.119 220.688 305.119ZM220.688 301.279C221.461 301.279 222.168 301.199 222.808 301.039C223.448 300.879 223.914 300.705 224.208 300.519V296.079L220.328 296.439C219.288 296.519 218.474 296.759 217.888 297.159C217.328 297.532 217.048 298.092 217.048 298.839C217.048 299.585 217.341 300.185 217.928 300.639C218.514 301.065 219.434 301.279 220.688 301.279ZM234.186 293.959H239.186V298.639C239.186 299.492 239.453 300.105 239.986 300.479C240.519 300.852 241.239 301.039 242.146 301.039C242.573 301.039 243.026 300.985 243.506 300.879C244.013 300.745 244.439 300.599 244.786 300.439C244.999 300.652 245.173 300.919 245.306 301.239C245.466 301.559 245.546 301.919 245.546 302.319C245.546 303.119 245.186 303.785 244.466 304.319C243.746 304.825 242.586 305.079 240.986 305.079C238.879 305.079 237.213 304.612 235.986 303.679C234.786 302.719 234.186 301.145 234.186 298.959V293.959ZM237.226 289.919V285.959H245.066C245.199 286.145 245.319 286.412 245.426 286.759C245.533 287.105 245.586 287.492 245.586 287.919C245.586 288.612 245.426 289.119 245.106 289.439C244.813 289.759 244.386 289.919 243.826 289.919H237.226ZM239.186 295.039H234.186V280.599C234.399 280.545 234.706 280.479 235.106 280.399C235.533 280.319 235.986 280.279 236.466 280.279C237.399 280.279 238.079 280.452 238.506 280.799C238.959 281.145 239.186 281.759 239.186 282.639V295.039ZM249.297 279.919C249.297 279.119 249.563 278.452 250.097 277.919C250.657 277.359 251.363 277.079 252.217 277.079C253.07 277.079 253.763 277.359 254.297 277.919C254.857 278.452 255.137 279.119 255.137 279.919C255.137 280.719 254.857 281.399 254.297 281.959C253.763 282.492 253.07 282.759 252.217 282.759C251.363 282.759 250.657 282.492 250.097 281.959C249.563 281.399 249.297 280.719 249.297 279.919ZM249.697 293.959H254.737V304.479C254.523 304.532 254.203 304.599 253.777 304.679C253.377 304.759 252.937 304.799 252.457 304.799C251.497 304.799 250.79 304.625 250.337 304.279C249.91 303.932 249.697 303.319 249.697 302.439V293.959ZM254.737 296.559H249.697V285.719C249.91 285.665 250.217 285.599 250.617 285.519C251.043 285.439 251.497 285.399 251.977 285.399C252.937 285.399 253.63 285.572 254.057 285.919C254.51 286.239 254.737 286.852 254.737 287.759V296.559ZM278.685 295.039C278.685 297.092 278.272 298.879 277.445 300.399C276.645 301.892 275.512 303.052 274.045 303.879C272.579 304.705 270.845 305.119 268.845 305.119C266.872 305.119 265.139 304.719 263.645 303.919C262.179 303.092 261.045 301.919 260.245 300.399C259.445 298.879 259.045 297.092 259.045 295.039C259.045 292.959 259.445 291.172 260.245 289.679C261.072 288.185 262.219 287.025 263.685 286.199C265.179 285.372 266.912 284.959 268.885 284.959C270.832 284.959 272.539 285.385 274.005 286.239C275.472 287.065 276.619 288.225 277.445 289.719C278.272 291.212 278.685 292.985 278.685 295.039ZM268.845 288.999C267.432 288.999 266.299 289.532 265.445 290.599C264.619 291.665 264.205 293.145 264.205 295.039C264.205 296.959 264.619 298.452 265.445 299.519C266.272 300.559 267.405 301.079 268.845 301.079C270.312 301.079 271.445 300.545 272.245 299.479C273.072 298.412 273.485 296.932 273.485 295.039C273.485 293.145 273.072 291.665 272.245 290.599C271.419 289.532 270.285 288.999 268.845 288.999ZM300.418 292.159V296.039H295.338V292.319C295.338 291.172 295.004 290.332 294.338 289.799C293.671 289.265 292.791 288.999 291.698 288.999C290.924 288.999 290.218 289.105 289.578 289.319C288.938 289.505 288.364 289.745 287.858 290.039V296.039H282.778V289.599C282.778 288.959 282.911 288.439 283.178 288.039C283.444 287.639 283.858 287.252 284.418 286.879C285.218 286.372 286.244 285.932 287.498 285.559C288.778 285.159 290.191 284.959 291.738 284.959C294.484 284.959 296.618 285.572 298.138 286.799C299.658 288.025 300.418 289.812 300.418 292.159ZM282.778 294.079H287.858V304.479C287.644 304.532 287.324 304.599 286.898 304.679C286.498 304.759 286.058 304.799 285.578 304.799C284.618 304.799 283.911 304.625 283.458 304.279C283.004 303.932 282.778 303.319 282.778 302.439V294.079ZM295.338 294.079H300.418V304.479C300.178 304.532 299.844 304.599 299.418 304.679C299.018 304.759 298.578 304.799 298.098 304.799C297.138 304.799 296.431 304.625 295.978 304.279C295.551 303.932 295.338 303.319 295.338 302.439V294.079Z" fill="#494B7C"/>
<path d="M166.909 140.538C160.332 140.538 155 145.833 155 152.306V234.688C155 241.16 160.332 246.456 166.909 246.456H202.635H214.544H250.271C256.85 246.456 262.18 241.16 262.18 234.688V152.306C262.18 145.833 256.85 140.538 250.271 140.538H214.544H202.635H166.909Z" fill="#E3E3E3"/>
<path d="M155.5 146.422C155.5 140.204 160.602 135.153 166.909 135.153H202.635H214.544H250.271C256.58 135.153 261.68 140.204 261.68 146.422V228.803C261.68 235.024 256.58 240.072 250.271 240.072H214.544H202.635H166.909C160.602 240.072 155.5 235.024 155.5 228.803V146.422Z" fill="white" stroke="#F7F7F7"/>
<path d="M166.909 134.653C160.332 134.653 155 139.949 155 146.422V164.075H262.18V146.422C262.18 139.949 256.85 134.653 250.271 134.653H214.544H202.635H166.909Z" fill="#494B7C"/>
<path d="M181.795 149.364C181.795 150.523 181.564 151.671 181.115 152.742C180.666 153.813 180.008 154.786 179.179 155.605C178.35 156.425 177.365 157.075 176.281 157.519C175.198 157.962 174.036 158.191 172.863 158.191C171.69 158.191 170.529 157.962 169.445 157.519C168.362 157.075 167.377 156.425 166.548 155.605C165.718 154.786 165.06 153.813 164.612 152.742C164.163 151.671 163.932 150.523 163.932 149.364C163.932 148.205 164.163 147.057 164.612 145.986C165.06 144.915 165.718 143.942 166.548 143.123C167.377 142.303 168.362 141.653 169.445 141.209C170.529 140.766 171.69 140.538 172.863 140.538C174.036 140.538 175.198 140.766 176.281 141.209C177.365 141.653 178.35 142.303 179.179 143.123C180.008 143.942 180.666 144.915 181.115 145.986C181.564 147.057 181.795 148.205 181.795 149.364Z" fill="#7C7C7C"/>
<path d="M172.864 122.884C169.575 122.884 166.909 125.519 166.909 128.769V146.422C166.909 149.672 169.575 152.306 172.864 152.306C176.152 152.306 178.818 149.672 178.818 146.422V128.769C178.818 125.519 176.152 122.884 172.864 122.884Z" fill="#DEDEDE"/>
<path d="M253.248 149.364C253.248 150.523 253.017 151.671 252.568 152.742C252.119 153.813 251.461 154.786 250.632 155.605C249.803 156.425 248.818 157.075 247.734 157.519C246.651 157.962 245.489 158.191 244.316 158.191C243.143 158.191 241.982 157.962 240.898 157.519C239.815 157.075 238.83 156.425 238.001 155.605C237.171 154.786 236.514 153.813 236.065 152.742C235.616 151.671 235.385 150.523 235.385 149.364C235.385 148.205 235.616 147.057 236.065 145.986C236.514 144.915 237.171 143.942 238.001 143.123C238.83 142.303 239.815 141.653 240.898 141.209C241.982 140.766 243.143 140.538 244.316 140.538C245.489 140.538 246.651 140.766 247.734 141.209C248.818 141.653 249.803 142.303 250.632 143.123C251.461 143.942 252.119 144.915 252.568 145.986C253.017 147.057 253.248 148.205 253.248 149.364Z" fill="#7C7C7C"/>
<path d="M244.317 122.884C241.03 122.884 238.362 125.238 238.362 128.769V146.422C238.362 149.364 241.03 152.306 244.317 152.306C247.604 152.306 250.271 149.364 250.271 146.422V128.769C250.271 125.238 247.604 122.884 244.317 122.884Z" fill="#DEDEDE"/>
<path d="M262.18 164.075H155V169.959H262.18V164.075Z" fill="#C8C8C8"/>
<path d="M189 184V189H199C201.76 189 204 191 204 194C204 196.5 201.76 199 199 199H194V204H199C201.76 204 204 206 204 209C204 211.5 201.76 214 199 214H189V219H199C204.525 219 209 214.5 209 209C209 206 207.66 203 205.56 201.5C207.66 199.5 209 197 209 194C209 188.5 204.525 184 199 184H189Z" fill="#494B7C"/>
<path d="M215 184V189H220V214H215V219H220H225H230V214H225V184H220H215Z" fill="#494B7C"/>
<defs>
<radialGradient id="paint0_radial_752_1310" cx="0" cy="0" r="1" gradientUnits="userSpaceOnUse" gradientTransform="translate(208 208) rotate(90) scale(208)">
<stop stop-color="#88FFE2" stop-opacity="0.52"/>
<stop offset="0.635417" stop-color="#5200FF" stop-opacity="0.11"/>
<stop offset="1" stop-color="white" stop-opacity="0"/>
</radialGradient>
</defs>
</svg>
