<svg width="260" height="256" viewBox="0 0 260 256" fill="none" xmlns="http://www.w3.org/2000/svg">
<path d="M54.6923 42.6667C42.7696 42.6667 33.105 52.2667 33.105 64V213.333C33.105 225.067 42.7696 234.667 54.6923 234.667H119.454H141.041H205.803C217.73 234.667 227.391 225.067 227.391 213.333V64C227.391 52.2667 217.73 42.6667 205.803 42.6667H141.041H119.454H54.6923Z" fill="#E3E3E3"/>
<path d="M34.105 53.3333C34.105 42.1143 43.3107 33 54.6923 33H119.454H141.041H205.803C217.189 33 226.391 42.1142 226.391 53.3333V202.667C226.391 213.89 217.189 223 205.803 223H141.041H119.454H54.6923C43.3106 223 34.105 213.89 34.105 202.667V53.3333Z" fill="white" stroke="#F7F7F7" stroke-width="2"/>
<path d="M54.6923 32C42.7696 32 33.105 41.6 33.105 53.3333V85.3333H227.391V53.3333C227.391 41.6 217.73 32 205.803 32H141.041H119.454H54.6923Z" fill="#494B7C"/>
<path d="M81.6764 58.6667C81.6764 60.7678 81.2576 62.8484 80.4439 64.7896C79.6303 66.7308 78.4377 68.4946 76.9343 69.9804C75.4309 71.4661 73.646 72.6447 71.6817 73.4487C69.7174 74.2528 67.612 74.6667 65.4859 74.6667C63.3597 74.6667 61.2544 74.2528 59.2901 73.4487C57.3257 72.6447 55.5409 71.4661 54.0375 69.9804C52.5341 68.4946 51.3415 66.7308 50.5278 64.7896C49.7142 62.8484 49.2954 60.7678 49.2954 58.6667C49.2954 56.5655 49.7142 54.4849 50.5278 52.5437C51.3415 50.6025 52.5341 48.8387 54.0375 47.3529C55.5409 45.8672 57.3257 44.6887 59.2901 43.8846C61.2544 43.0805 63.3597 42.6667 65.4859 42.6667C67.612 42.6667 69.7174 43.0805 71.6817 43.8846C73.646 44.6887 75.4309 45.8672 76.9343 47.3529C78.4377 48.8387 79.6303 50.6025 80.4439 52.5437C81.2576 54.4849 81.6764 56.5655 81.6764 58.6667Z" fill="#7C7C7C"/>
<path d="M65.486 10.6667C59.5247 10.6667 54.6924 15.4421 54.6924 21.3333V53.3333C54.6924 59.2245 59.5247 64 65.486 64C71.4474 64 76.2797 59.2245 76.2797 53.3333V21.3333C76.2797 15.4421 71.4474 10.6667 65.486 10.6667Z" fill="#DEDEDE"/>
<path d="M211.2 58.6667C211.2 60.7678 210.782 62.8484 209.968 64.7896C209.154 66.7308 207.962 68.4946 206.458 69.9804C204.955 71.4661 203.17 72.6447 201.206 73.4487C199.241 74.2528 197.136 74.6667 195.01 74.6667C192.884 74.6667 190.778 74.2528 188.814 73.4487C186.85 72.6447 185.065 71.4661 183.561 69.9804C182.058 68.4946 180.865 66.7308 180.052 64.7896C179.238 62.8484 178.819 60.7678 178.819 58.6667C178.819 56.5655 179.238 54.4849 180.052 52.5437C180.865 50.6025 182.058 48.8387 183.561 47.3529C185.065 45.8672 186.85 44.6887 188.814 43.8846C190.778 43.0805 192.884 42.6667 195.01 42.6667C197.136 42.6667 199.241 43.0805 201.206 43.8846C203.17 44.6887 204.955 45.8672 206.458 47.3529C207.962 48.8387 209.154 50.6025 209.968 52.5437C210.782 54.4849 211.2 56.5655 211.2 58.6667Z" fill="#7C7C7C"/>
<path d="M195.01 10.6667C189.052 10.6667 184.216 14.9333 184.216 21.3333V53.3333C184.216 58.6667 189.052 64 195.01 64C200.968 64 205.803 58.6667 205.803 53.3333V21.3333C205.803 14.9333 200.968 10.6667 195.01 10.6667Z" fill="#DEDEDE"/>
<path d="M227.391 85.3333H33.105V96H227.391V85.3333Z" fill="#C8C8C8"/>
<path d="M94.7371 121.452V130.515H112.864C117.867 130.515 121.928 134.141 121.928 139.579C121.928 144.11 117.867 148.642 112.864 148.642H103.801V157.706H112.864C117.867 157.706 121.928 161.331 121.928 166.769C121.928 171.301 117.867 175.833 112.864 175.833H94.7371V184.896H112.864C122.879 184.896 130.991 176.739 130.991 166.769C130.991 161.331 128.562 155.893 124.756 153.174C128.562 149.549 130.991 145.017 130.991 139.579C130.991 129.609 122.879 121.452 112.864 121.452H94.7371Z" fill="#494B7C"/>
<path d="M141.868 121.452V130.515H150.931V175.833H141.868V184.896H150.931H159.995H169.058V175.833H159.995V121.452H150.931H141.868Z" fill="#494B7C"/>
</svg>
