<svg width="260" height="256" viewBox="0 0 260 256" fill="none" xmlns="http://www.w3.org/2000/svg">
<path d="M54.2162 42.6667C42.2935 42.6667 32.6289 52.2667 32.6289 64V213.333C32.6289 225.067 42.2935 234.667 54.2162 234.667H118.978H140.565H205.327C217.254 234.667 226.915 225.067 226.915 213.333V64C226.915 52.2667 217.254 42.6667 205.327 42.6667H140.565H118.978H54.2162Z" fill="#AFAFAF"/>
<path d="M33.1289 53.3333C33.1289 41.8326 42.5641 32.5 54.2162 32.5H118.978H140.565H205.327C216.984 32.5 226.415 41.8326 226.415 53.3333V202.667C226.415 214.172 216.984 223.5 205.327 223.5H140.565H118.978H54.2162C42.564 223.5 33.1289 214.172 33.1289 202.667V53.3333Z" fill="#DEDEDE" stroke="#D0D0D0"/>
<path d="M54.2162 32C42.2935 32 32.6289 41.6 32.6289 53.3333V85.3333H226.915V53.3333C226.915 41.6 217.254 32 205.327 32H140.565H118.978H54.2162Z" fill="#494B7C"/>
<path d="M81.2003 58.6667C81.2003 60.7678 80.7815 62.8484 79.9679 64.7896C79.1542 66.7308 77.9616 68.4946 76.4582 69.9804C74.9548 71.4661 73.17 72.6447 71.2056 73.4487C69.2413 74.2528 67.136 74.6667 65.0098 74.6667C62.8836 74.6667 60.7783 74.2528 58.814 73.4487C56.8497 72.6447 55.0648 71.4661 53.5614 69.9804C52.058 68.4946 50.8654 66.7308 50.0518 64.7896C49.2381 62.8484 48.8193 60.7678 48.8193 58.6667C48.8193 56.5655 49.2381 54.4849 50.0518 52.5437C50.8654 50.6025 52.058 48.8387 53.5614 47.3529C55.0648 45.8672 56.8497 44.6887 58.814 43.8846C60.7783 43.0805 62.8836 42.6667 65.0098 42.6667C67.136 42.6667 69.2413 43.0805 71.2056 43.8846C73.17 44.6887 74.9548 45.8672 76.4582 47.3529C77.9616 48.8387 79.1542 50.6025 79.9679 52.5437C80.7815 54.4849 81.2003 56.5655 81.2003 58.6667Z" fill="#7C7C7C"/>
<path d="M65.01 10.6667C59.0486 10.6667 54.2163 15.4421 54.2163 21.3333V53.3333C54.2163 59.2245 59.0486 64 65.01 64C70.9713 64 75.8036 59.2245 75.8036 53.3333V21.3333C75.8036 15.4421 70.9713 10.6667 65.01 10.6667Z" fill="#C9C9C9"/>
<path d="M210.724 58.6667C210.724 60.7678 210.305 62.8484 209.492 64.7896C208.678 66.7308 207.486 68.4946 205.982 69.9804C204.479 71.4661 202.694 72.6447 200.73 73.4487C198.765 74.2528 196.66 74.6667 194.534 74.6667C192.408 74.6667 190.302 74.2528 188.338 73.4487C186.374 72.6447 184.589 71.4661 183.085 69.9804C181.582 68.4946 180.389 66.7308 179.576 64.7896C178.762 62.8484 178.343 60.7678 178.343 58.6667C178.343 56.5655 178.762 54.4849 179.576 52.5437C180.389 50.6025 181.582 48.8387 183.085 47.3529C184.589 45.8672 186.374 44.6887 188.338 43.8846C190.302 43.0805 192.408 42.6667 194.534 42.6667C196.66 42.6667 198.765 43.0805 200.73 43.8846C202.694 44.6887 204.479 45.8672 205.982 47.3529C207.486 48.8387 208.678 50.6025 209.492 52.5437C210.305 54.4849 210.724 56.5655 210.724 58.6667Z" fill="#7C7C7C"/>
<path d="M194.534 10.6667C188.576 10.6667 183.74 14.9333 183.74 21.3333V53.3333C183.74 58.6667 188.576 64 194.534 64C200.492 64 205.327 58.6667 205.327 53.3333V21.3333C205.327 14.9333 200.492 10.6667 194.534 10.6667Z" fill="#C9C9C9"/>
<path d="M226.915 85.3333H32.6289V96H226.915V85.3333Z" fill="#C8C8C8"/>
<path d="M94.261 121.452V130.515H112.388C117.391 130.515 121.452 134.141 121.452 139.579C121.452 144.11 117.391 148.642 112.388 148.642H103.325V157.706H112.388C117.391 157.706 121.452 161.331 121.452 166.769C121.452 171.301 117.391 175.833 112.388 175.833H94.261V184.896H112.388C122.403 184.896 130.515 176.739 130.515 166.769C130.515 161.331 128.086 155.893 124.279 153.174C128.086 149.549 130.515 145.017 130.515 139.579C130.515 129.609 122.403 121.452 112.388 121.452H94.261Z" fill="#8F91C7"/>
<path d="M141.392 121.452V130.515H150.455V175.833H141.392V184.896H150.455H159.519H168.582V175.833H159.519V121.452H150.455H141.392Z" fill="#8F91C7"/>
</svg>
