<svg width="320" height="356" viewBox="0 0 320 356" fill="none" xmlns="http://www.w3.org/2000/svg">
<path d="M13.803 311.072V288.416C13.803 287.605 14.0163 286.987 14.443 286.56C14.8697 286.133 15.467 285.792 16.235 285.536C17.5577 285.067 19.1577 284.747 21.035 284.576C22.955 284.363 24.7257 284.256 26.347 284.256C31.979 284.256 36.203 285.472 39.019 287.904C41.8777 290.293 43.307 293.536 43.307 297.632C43.307 300.32 42.667 302.688 41.387 304.736C40.1497 306.741 38.3363 308.299 35.947 309.408C33.5577 310.517 30.635 311.072 27.179 311.072H13.803ZM18.283 324.448C16.6617 324.448 15.5097 324.149 14.827 323.552C14.1443 322.955 13.803 321.952 13.803 320.544V307.36H22.123V323.936C21.739 324.021 21.1843 324.128 20.459 324.256C19.7763 324.384 19.051 324.448 18.283 324.448ZM22.059 304.416H26.603C29.163 304.416 31.1683 303.861 32.619 302.752C34.1123 301.6 34.859 299.893 34.859 297.632C34.859 295.413 34.155 293.749 32.747 292.64C31.3817 291.531 29.3763 290.976 26.731 290.976C25.835 290.976 25.003 291.019 24.235 291.104C23.467 291.147 22.7417 291.232 22.059 291.36V304.416ZM50.041 307.104L58.169 307.488V323.936C57.8277 324.021 57.3157 324.128 56.633 324.256C55.993 324.384 55.289 324.448 54.521 324.448C52.985 324.448 51.8543 324.171 51.129 323.616C50.4037 323.061 50.041 322.08 50.041 320.672V307.104ZM58.169 311.584L50.041 311.264V282.4C50.425 282.272 50.937 282.165 51.577 282.08C52.2597 281.952 52.985 281.888 53.753 281.888C55.289 281.888 56.3983 282.165 57.081 282.72C57.8063 283.232 58.169 284.213 58.169 285.664V311.584ZM78.625 324.96C74.401 324.96 71.0517 324.128 68.577 322.464C66.1023 320.8 64.865 318.347 64.865 315.104C64.865 312.245 65.761 310.048 67.553 308.512C69.3877 306.976 72.033 306.037 75.489 305.696L84.257 304.8V303.712C84.257 302.048 83.6597 300.853 82.465 300.128C81.2703 299.36 79.6277 298.976 77.537 298.976C75.873 298.976 74.2517 299.189 72.673 299.616C71.0943 300.043 69.6863 300.533 68.449 301.088C67.9797 300.747 67.5743 300.277 67.233 299.68C66.9343 299.083 66.785 298.464 66.785 297.824C66.785 296.203 67.6383 295.029 69.345 294.304C70.5397 293.792 71.9263 293.408 73.505 293.152C75.1263 292.853 76.7477 292.704 78.369 292.704C82.5503 292.704 85.8783 293.6 88.353 295.392C90.8703 297.184 92.129 299.979 92.129 303.776V318.56C92.129 319.584 91.873 320.395 91.361 320.992C90.8917 321.589 90.2517 322.123 89.441 322.592C88.2463 323.275 86.7317 323.829 84.897 324.256C83.0623 324.725 80.9717 324.96 78.625 324.96ZM78.625 318.816C79.8623 318.816 80.993 318.688 82.017 318.432C83.041 318.176 83.7877 317.899 84.257 317.6V310.496L78.049 311.072C76.385 311.2 75.0837 311.584 74.145 312.224C73.249 312.821 72.801 313.717 72.801 314.912C72.801 316.107 73.2703 317.067 74.209 317.792C75.1477 318.475 76.6197 318.816 78.625 318.816ZM128.319 304.224V310.432H120.191V304.48C120.191 302.645 119.657 301.301 118.591 300.448C117.524 299.595 116.116 299.168 114.367 299.168C113.129 299.168 111.999 299.339 110.975 299.68C109.951 299.979 109.033 300.363 108.223 300.832V310.432H100.095V300.128C100.095 299.104 100.308 298.272 100.735 297.632C101.161 296.992 101.823 296.373 102.719 295.776C103.999 294.965 105.641 294.261 107.647 293.664C109.695 293.024 111.956 292.704 114.431 292.704C118.825 292.704 122.239 293.685 124.671 295.648C127.103 297.611 128.319 300.469 128.319 304.224ZM100.095 307.296H108.223V323.936C107.881 324.021 107.369 324.128 106.687 324.256C106.047 324.384 105.343 324.448 104.575 324.448C103.039 324.448 101.908 324.171 101.183 323.616C100.457 323.061 100.095 322.08 100.095 320.672V307.296ZM120.191 307.296H128.319V323.936C127.935 324.021 127.401 324.128 126.719 324.256C126.079 324.384 125.375 324.448 124.607 324.448C123.071 324.448 121.94 324.171 121.215 323.616C120.532 323.061 120.191 322.08 120.191 320.672V307.296ZM152.087 299.232C149.612 299.232 147.5 300.064 145.751 301.728C144.002 303.392 143.127 305.781 143.127 308.896C143.127 312.011 143.959 314.379 145.623 316C147.33 317.621 149.484 318.432 152.087 318.432C153.58 318.432 154.882 318.24 155.991 317.856C157.1 317.429 158.06 316.96 158.871 316.448C159.511 316.917 160.002 317.429 160.343 317.984C160.684 318.496 160.855 319.136 160.855 319.904C160.855 321.355 160.002 322.549 158.295 323.488C156.588 324.427 154.284 324.896 151.383 324.896C148.14 324.896 145.26 324.299 142.743 323.104C140.268 321.909 138.348 320.139 136.983 317.792C135.618 315.403 134.935 312.437 134.935 308.896C134.935 305.312 135.66 302.325 137.111 299.936C138.604 297.547 140.588 295.755 143.063 294.56C145.538 293.323 148.226 292.704 151.127 292.704C153.986 292.704 156.268 293.216 157.975 294.24C159.682 295.264 160.535 296.501 160.535 297.952C160.535 298.635 160.364 299.253 160.023 299.808C159.682 300.32 159.255 300.768 158.743 301.152C157.932 300.683 156.972 300.256 155.863 299.872C154.796 299.445 153.538 299.232 152.087 299.232ZM179.5 324.96C175.276 324.96 171.927 324.128 169.452 322.464C166.977 320.8 165.74 318.347 165.74 315.104C165.74 312.245 166.636 310.048 168.428 308.512C170.263 306.976 172.908 306.037 176.364 305.696L185.132 304.8V303.712C185.132 302.048 184.535 300.853 183.34 300.128C182.145 299.36 180.503 298.976 178.412 298.976C176.748 298.976 175.127 299.189 173.548 299.616C171.969 300.043 170.561 300.533 169.324 301.088C168.855 300.747 168.449 300.277 168.108 299.68C167.809 299.083 167.66 298.464 167.66 297.824C167.66 296.203 168.513 295.029 170.22 294.304C171.415 293.792 172.801 293.408 174.38 293.152C176.001 292.853 177.623 292.704 179.244 292.704C183.425 292.704 186.753 293.6 189.228 295.392C191.745 297.184 193.004 299.979 193.004 303.776V318.56C193.004 319.584 192.748 320.395 192.236 320.992C191.767 321.589 191.127 322.123 190.316 322.592C189.121 323.275 187.607 323.829 185.772 324.256C183.937 324.725 181.847 324.96 179.5 324.96ZM179.5 318.816C180.737 318.816 181.868 318.688 182.892 318.432C183.916 318.176 184.663 317.899 185.132 317.6V310.496L178.924 311.072C177.26 311.2 175.959 311.584 175.02 312.224C174.124 312.821 173.676 313.717 173.676 314.912C173.676 316.107 174.145 317.067 175.084 317.792C176.023 318.475 177.495 318.816 179.5 318.816ZM201.098 307.104H209.098V314.592C209.098 315.957 209.524 316.939 210.378 317.536C211.231 318.133 212.383 318.432 213.833 318.432C214.516 318.432 215.242 318.347 216.01 318.176C216.82 317.963 217.503 317.728 218.058 317.472C218.399 317.813 218.676 318.24 218.89 318.752C219.146 319.264 219.274 319.84 219.274 320.48C219.274 321.76 218.698 322.827 217.546 323.68C216.394 324.491 214.538 324.896 211.978 324.896C208.607 324.896 205.94 324.149 203.978 322.656C202.058 321.12 201.098 318.603 201.098 315.104V307.104ZM205.962 300.64V294.304H218.506C218.719 294.603 218.911 295.029 219.082 295.584C219.252 296.139 219.338 296.757 219.338 297.44C219.338 298.549 219.082 299.36 218.57 299.872C218.1 300.384 217.418 300.64 216.522 300.64H205.962ZM209.098 308.832H201.098V285.728C201.439 285.643 201.93 285.536 202.57 285.408C203.252 285.28 203.978 285.216 204.746 285.216C206.239 285.216 207.327 285.493 208.01 286.048C208.735 286.603 209.098 287.584 209.098 288.992V308.832ZM225.275 284.64C225.275 283.36 225.701 282.293 226.555 281.44C227.451 280.544 228.581 280.096 229.947 280.096C231.312 280.096 232.421 280.544 233.275 281.44C234.171 282.293 234.619 283.36 234.619 284.64C234.619 285.92 234.171 287.008 233.275 287.904C232.421 288.757 231.312 289.184 229.947 289.184C228.581 289.184 227.451 288.757 226.555 287.904C225.701 287.008 225.275 285.92 225.275 284.64ZM225.915 307.104H233.979V323.936C233.637 324.021 233.125 324.128 232.443 324.256C231.803 324.384 231.099 324.448 230.331 324.448C228.795 324.448 227.664 324.171 226.939 323.616C226.256 323.061 225.915 322.08 225.915 320.672V307.104ZM233.979 311.264H225.915V293.92C226.256 293.835 226.747 293.728 227.387 293.6C228.069 293.472 228.795 293.408 229.562 293.408C231.099 293.408 232.208 293.685 232.891 294.24C233.616 294.752 233.979 295.733 233.979 297.184V311.264ZM272.297 308.832C272.297 312.117 271.635 314.976 270.312 317.408C269.033 319.797 267.219 321.653 264.873 322.976C262.526 324.299 259.753 324.96 256.553 324.96C253.395 324.96 250.622 324.32 248.233 323.04C245.886 321.717 244.073 319.84 242.793 317.408C241.513 314.976 240.873 312.117 240.873 308.832C240.873 305.504 241.513 302.645 242.793 300.256C244.115 297.867 245.95 296.011 248.297 294.688C250.686 293.365 253.459 292.704 256.617 292.704C259.731 292.704 262.462 293.387 264.809 294.752C267.155 296.075 268.99 297.931 270.312 300.32C271.635 302.709 272.297 305.547 272.297 308.832ZM256.553 299.168C254.291 299.168 252.478 300.021 251.113 301.728C249.79 303.435 249.129 305.803 249.129 308.832C249.129 311.904 249.79 314.293 251.113 316C252.435 317.664 254.249 318.496 256.553 318.496C258.899 318.496 260.713 317.643 261.993 315.936C263.315 314.229 263.977 311.861 263.977 308.832C263.977 305.803 263.315 303.435 261.993 301.728C260.67 300.021 258.857 299.168 256.553 299.168ZM307.069 304.224V310.432H298.941V304.48C298.941 302.645 298.407 301.301 297.341 300.448C296.274 299.595 294.866 299.168 293.117 299.168C291.879 299.168 290.749 299.339 289.725 299.68C288.701 299.979 287.783 300.363 286.973 300.832V310.432H278.845V300.128C278.845 299.104 279.058 298.272 279.485 297.632C279.911 296.992 280.573 296.373 281.469 295.776C282.749 294.965 284.391 294.261 286.397 293.664C288.445 293.024 290.706 292.704 293.181 292.704C297.575 292.704 300.989 293.685 303.421 295.648C305.853 297.611 307.069 300.469 307.069 304.224ZM278.845 307.296H286.973V323.936C286.631 324.021 286.119 324.128 285.437 324.256C284.797 324.384 284.093 324.448 283.325 324.448C281.789 324.448 280.658 324.171 279.933 323.616C279.207 323.061 278.845 322.08 278.845 320.672V307.296ZM298.941 307.296H307.069V323.936C306.685 324.021 306.151 324.128 305.469 324.256C304.829 324.384 304.125 324.448 303.357 324.448C301.821 324.448 300.69 324.171 299.965 323.616C299.282 323.061 298.941 322.08 298.941 320.672V307.296Z" fill="#494B7C"/>
<path d="M84.6923 42.6667C72.7696 42.6667 63.105 52.2667 63.105 64V213.333C63.105 225.067 72.7696 234.667 84.6923 234.667H149.454H171.041H235.803C247.73 234.667 257.391 225.067 257.391 213.333V64C257.391 52.2667 247.73 42.6667 235.803 42.6667H171.041H149.454H84.6923Z" fill="#E3E3E3"/>
<path d="M64.105 53.3333C64.105 42.1143 73.3107 33 84.6923 33H149.454H171.041H235.803C247.189 33 256.391 42.1142 256.391 53.3333V202.667C256.391 213.89 247.189 223 235.803 223H171.041H149.454H84.6923C73.3106 223 64.105 213.89 64.105 202.667V53.3333Z" fill="white" stroke="#F7F7F7" stroke-width="2"/>
<path d="M84.6923 32C72.7696 32 63.105 41.6 63.105 53.3333V85.3333H257.391V53.3333C257.391 41.6 247.73 32 235.803 32H171.041H149.454H84.6923Z" fill="#494B7C"/>
<path d="M111.676 58.6667C111.676 60.7678 111.258 62.8484 110.444 64.7896C109.63 66.7308 108.438 68.4946 106.934 69.9804C105.431 71.4661 103.646 72.6447 101.682 73.4487C99.7174 74.2528 97.612 74.6667 95.4859 74.6667C93.3597 74.6667 91.2544 74.2528 89.2901 73.4487C87.3257 72.6447 85.5409 71.4661 84.0375 69.9804C82.5341 68.4946 81.3415 66.7308 80.5278 64.7896C79.7142 62.8484 79.2954 60.7678 79.2954 58.6667C79.2954 56.5655 79.7142 54.4849 80.5278 52.5437C81.3415 50.6025 82.5341 48.8387 84.0375 47.3529C85.5409 45.8672 87.3257 44.6887 89.2901 43.8846C91.2544 43.0805 93.3597 42.6667 95.4859 42.6667C97.612 42.6667 99.7174 43.0805 101.682 43.8846C103.646 44.6887 105.431 45.8672 106.934 47.3529C108.438 48.8387 109.63 50.6025 110.444 52.5437C111.258 54.4849 111.676 56.5655 111.676 58.6667Z" fill="#7C7C7C"/>
<path d="M95.486 10.6667C89.5247 10.6667 84.6924 15.4421 84.6924 21.3333V53.3333C84.6924 59.2245 89.5247 64 95.486 64C101.447 64 106.28 59.2245 106.28 53.3333V21.3333C106.28 15.4421 101.447 10.6667 95.486 10.6667Z" fill="#DEDEDE"/>
<path d="M241.2 58.6667C241.2 60.7678 240.782 62.8484 239.968 64.7896C239.154 66.7308 237.962 68.4946 236.458 69.9804C234.955 71.4661 233.17 72.6447 231.206 73.4487C229.241 74.2528 227.136 74.6667 225.01 74.6667C222.884 74.6667 220.778 74.2528 218.814 73.4487C216.85 72.6447 215.065 71.4661 213.561 69.9804C212.058 68.4946 210.865 66.7308 210.052 64.7896C209.238 62.8484 208.819 60.7678 208.819 58.6667C208.819 56.5655 209.238 54.4849 210.052 52.5437C210.865 50.6025 212.058 48.8387 213.561 47.3529C215.065 45.8672 216.85 44.6887 218.814 43.8846C220.778 43.0805 222.884 42.6667 225.01 42.6667C227.136 42.6667 229.241 43.0805 231.206 43.8846C233.17 44.6887 234.955 45.8672 236.458 47.3529C237.962 48.8387 239.154 50.6025 239.968 52.5437C240.782 54.4849 241.2 56.5655 241.2 58.6667Z" fill="#7C7C7C"/>
<path d="M225.01 10.6667C219.052 10.6667 214.216 14.9333 214.216 21.3333V53.3333C214.216 58.6667 219.052 64 225.01 64C230.968 64 235.803 58.6667 235.803 53.3333V21.3333C235.803 14.9333 230.968 10.6667 225.01 10.6667Z" fill="#DEDEDE"/>
<path d="M257.391 85.3333H63.105V96H257.391V85.3333Z" fill="#C8C8C8"/>
<path d="M124.737 121.452V130.515H142.864C147.867 130.515 151.928 134.141 151.928 139.579C151.928 144.11 147.867 148.642 142.864 148.642H133.801V157.706H142.864C147.867 157.706 151.928 161.331 151.928 166.769C151.928 171.301 147.867 175.833 142.864 175.833H124.737V184.896H142.864C152.879 184.896 160.991 176.739 160.991 166.769C160.991 161.331 158.562 155.893 154.756 153.174C158.562 149.549 160.991 145.017 160.991 139.579C160.991 129.609 152.879 121.452 142.864 121.452H124.737Z" fill="#494B7C"/>
<path d="M171.868 121.452V130.515H180.931V175.833H171.868V184.896H180.931H189.995H199.058V175.833H189.995V121.452H180.931H171.868Z" fill="#494B7C"/>
</svg>
